<svg xmlns="http://www.w3.org/2000/svg" version="1.1"
     width="1440" height="560" preserveAspectRatio="none" viewBox="0 0 1440 560">
    <g mask="url(&quot;#SvgjsMask1000&quot;)" fill="none">
        <rect width="1440" height="560" x="0" y="0" fill="#0e2a47"></rect>
        <path d="M55.49 162.1L120.44 199.6L120.44 274.6L55.49 312.1L-9.46 274.6L-9.46 199.6zM120.44 274.6L185.4 312.1L185.4 387.1L120.44 424.6L55.49 387.1L55.49 312.1zM185.4 -62.9L250.35 -25.4L250.35 49.6L185.4 87.1L120.44 49.6L120.44 -25.4zM185.4 162.1L250.35 199.6L250.35 274.6L185.4 312.1L120.44 274.6L120.44 199.6zM250.35 499.6L315.31 537.1L315.31 612.1L250.35 649.6L185.4 612.1L185.4 537.1zM315.31 -62.9L380.26 -25.4L380.26 49.6L315.31 87.1L250.35 49.6L250.35 -25.4zM315.31 387.1L380.26 424.6L380.26 499.6L315.31 537.1L250.35 499.6L250.35 424.6zM380.26 499.6L445.21 537.1L445.21 612.1L380.26 649.6L315.31 612.1L315.31 537.1zM445.21 -62.9L510.17 -25.4L510.17 49.6L445.21 87.1L380.26 49.6L380.26 -25.4zM445.21 162.1L510.17 199.6L510.17 274.6L445.21 312.1L380.26 274.6L380.26 199.6zM510.17 274.6L575.12 312.1L575.12 387.1L510.17 424.6L445.21 387.1L445.21 312.1zM640.07 49.6L705.03 87.1L705.03 162.1L640.07 199.6L575.12 162.1L575.12 87.1zM640.07 499.6L705.03 537.1L705.03 612.1L640.07 649.6L575.12 612.1L575.12 537.1zM769.98 49.6L834.94 87.1L834.94 162.1L769.98 199.6L705.03 162.1L705.03 87.1zM769.98 274.6L834.94 312.1L834.94 387.1L769.98 424.6L705.03 387.1L705.03 312.1zM834.93 -62.9L899.89 -25.4L899.89 49.6L834.93 87.1L769.98 49.6L769.98 -25.4zM899.89 274.6L964.84 312.1L964.84 387.1L899.89 424.6L834.93 387.1L834.93 312.1zM964.84 -62.9L1029.8 -25.4L1029.8 49.6L964.84 87.1L899.89 49.6L899.89 -25.4zM1029.8 499.6L1094.75 537.1L1094.75 612.1L1029.8 649.6L964.84 612.1L964.84 537.1zM1159.7 274.6L1224.66 312.1L1224.66 387.1L1159.7 424.6L1094.75 387.1L1094.75 312.1zM1289.61 49.6L1354.56 87.1L1354.56 162.1L1289.61 199.6L1224.66 162.1L1224.66 87.1zM1289.61 274.6L1354.56 312.1L1354.56 387.1L1289.61 424.6L1224.66 387.1L1224.66 312.1zM1224.66 387.1L1289.61 424.6L1289.61 499.6L1224.66 537.1L1159.7 499.6L1159.7 424.6zM1289.61 499.6L1354.56 537.1L1354.56 612.1L1289.61 649.6L1224.66 612.1L1224.66 537.1zM1419.52 49.6L1484.47 87.1L1484.47 162.1L1419.52 199.6L1354.57 162.1L1354.57 87.1zM1484.47 162.1L1549.43 199.6L1549.43 274.6L1484.47 312.1L1419.52 274.6L1419.52 199.6zM1484.47 387.1L1549.43 424.6L1549.43 499.6L1484.47 537.1L1419.52 499.6L1419.52 424.6zM1549.43 499.6L1614.38 537.1L1614.38 612.1L1549.43 649.6L1484.47 612.1L1484.47 537.1z"
              stroke="#03305d" stroke-width="2"></path>
        <path d="M47.99 162.1 a7.5 7.5 0 1 0 15 0 a7.5 7.5 0 1 0 -15 0zM112.94 199.6 a7.5 7.5 0 1 0 15 0 a7.5 7.5 0 1 0 -15 0zM112.94 274.6 a7.5 7.5 0 1 0 15 0 a7.5 7.5 0 1 0 -15 0zM47.99 312.1 a7.5 7.5 0 1 0 15 0 a7.5 7.5 0 1 0 -15 0zM-16.96 274.6 a7.5 7.5 0 1 0 15 0 a7.5 7.5 0 1 0 -15 0zM-16.96 199.6 a7.5 7.5 0 1 0 15 0 a7.5 7.5 0 1 0 -15 0zM177.9 312.1 a7.5 7.5 0 1 0 15 0 a7.5 7.5 0 1 0 -15 0zM177.9 387.1 a7.5 7.5 0 1 0 15 0 a7.5 7.5 0 1 0 -15 0zM112.94 424.6 a7.5 7.5 0 1 0 15 0 a7.5 7.5 0 1 0 -15 0zM47.99 387.1 a7.5 7.5 0 1 0 15 0 a7.5 7.5 0 1 0 -15 0zM177.9 -62.9 a7.5 7.5 0 1 0 15 0 a7.5 7.5 0 1 0 -15 0zM242.85 -25.4 a7.5 7.5 0 1 0 15 0 a7.5 7.5 0 1 0 -15 0zM242.85 49.6 a7.5 7.5 0 1 0 15 0 a7.5 7.5 0 1 0 -15 0zM177.9 87.1 a7.5 7.5 0 1 0 15 0 a7.5 7.5 0 1 0 -15 0zM112.94 49.6 a7.5 7.5 0 1 0 15 0 a7.5 7.5 0 1 0 -15 0zM112.94 -25.4 a7.5 7.5 0 1 0 15 0 a7.5 7.5 0 1 0 -15 0zM177.9 162.1 a7.5 7.5 0 1 0 15 0 a7.5 7.5 0 1 0 -15 0zM242.85 199.6 a7.5 7.5 0 1 0 15 0 a7.5 7.5 0 1 0 -15 0zM242.85 274.6 a7.5 7.5 0 1 0 15 0 a7.5 7.5 0 1 0 -15 0zM242.85 499.6 a7.5 7.5 0 1 0 15 0 a7.5 7.5 0 1 0 -15 0zM307.81 537.1 a7.5 7.5 0 1 0 15 0 a7.5 7.5 0 1 0 -15 0zM307.81 612.1 a7.5 7.5 0 1 0 15 0 a7.5 7.5 0 1 0 -15 0zM242.85 649.6 a7.5 7.5 0 1 0 15 0 a7.5 7.5 0 1 0 -15 0zM177.9 612.1 a7.5 7.5 0 1 0 15 0 a7.5 7.5 0 1 0 -15 0zM177.9 537.1 a7.5 7.5 0 1 0 15 0 a7.5 7.5 0 1 0 -15 0zM307.81 -62.9 a7.5 7.5 0 1 0 15 0 a7.5 7.5 0 1 0 -15 0zM372.76 -25.4 a7.5 7.5 0 1 0 15 0 a7.5 7.5 0 1 0 -15 0zM372.76 49.6 a7.5 7.5 0 1 0 15 0 a7.5 7.5 0 1 0 -15 0zM307.81 87.1 a7.5 7.5 0 1 0 15 0 a7.5 7.5 0 1 0 -15 0zM307.81 387.1 a7.5 7.5 0 1 0 15 0 a7.5 7.5 0 1 0 -15 0zM372.76 424.6 a7.5 7.5 0 1 0 15 0 a7.5 7.5 0 1 0 -15 0zM372.76 499.6 a7.5 7.5 0 1 0 15 0 a7.5 7.5 0 1 0 -15 0zM242.85 424.6 a7.5 7.5 0 1 0 15 0 a7.5 7.5 0 1 0 -15 0zM437.71 537.1 a7.5 7.5 0 1 0 15 0 a7.5 7.5 0 1 0 -15 0zM437.71 612.1 a7.5 7.5 0 1 0 15 0 a7.5 7.5 0 1 0 -15 0zM372.76 649.6 a7.5 7.5 0 1 0 15 0 a7.5 7.5 0 1 0 -15 0zM437.71 -62.9 a7.5 7.5 0 1 0 15 0 a7.5 7.5 0 1 0 -15 0zM502.67 -25.4 a7.5 7.5 0 1 0 15 0 a7.5 7.5 0 1 0 -15 0zM502.67 49.6 a7.5 7.5 0 1 0 15 0 a7.5 7.5 0 1 0 -15 0zM437.71 87.1 a7.5 7.5 0 1 0 15 0 a7.5 7.5 0 1 0 -15 0zM437.71 162.1 a7.5 7.5 0 1 0 15 0 a7.5 7.5 0 1 0 -15 0zM502.67 199.6 a7.5 7.5 0 1 0 15 0 a7.5 7.5 0 1 0 -15 0zM502.67 274.6 a7.5 7.5 0 1 0 15 0 a7.5 7.5 0 1 0 -15 0zM437.71 312.1 a7.5 7.5 0 1 0 15 0 a7.5 7.5 0 1 0 -15 0zM372.76 274.6 a7.5 7.5 0 1 0 15 0 a7.5 7.5 0 1 0 -15 0zM372.76 199.6 a7.5 7.5 0 1 0 15 0 a7.5 7.5 0 1 0 -15 0zM567.62 312.1 a7.5 7.5 0 1 0 15 0 a7.5 7.5 0 1 0 -15 0zM567.62 387.1 a7.5 7.5 0 1 0 15 0 a7.5 7.5 0 1 0 -15 0zM502.67 424.6 a7.5 7.5 0 1 0 15 0 a7.5 7.5 0 1 0 -15 0zM437.71 387.1 a7.5 7.5 0 1 0 15 0 a7.5 7.5 0 1 0 -15 0zM632.57 49.6 a7.5 7.5 0 1 0 15 0 a7.5 7.5 0 1 0 -15 0zM697.53 87.1 a7.5 7.5 0 1 0 15 0 a7.5 7.5 0 1 0 -15 0zM697.53 162.1 a7.5 7.5 0 1 0 15 0 a7.5 7.5 0 1 0 -15 0zM632.57 199.6 a7.5 7.5 0 1 0 15 0 a7.5 7.5 0 1 0 -15 0zM567.62 162.1 a7.5 7.5 0 1 0 15 0 a7.5 7.5 0 1 0 -15 0zM567.62 87.1 a7.5 7.5 0 1 0 15 0 a7.5 7.5 0 1 0 -15 0zM632.57 499.6 a7.5 7.5 0 1 0 15 0 a7.5 7.5 0 1 0 -15 0zM697.53 537.1 a7.5 7.5 0 1 0 15 0 a7.5 7.5 0 1 0 -15 0zM697.53 612.1 a7.5 7.5 0 1 0 15 0 a7.5 7.5 0 1 0 -15 0zM632.57 649.6 a7.5 7.5 0 1 0 15 0 a7.5 7.5 0 1 0 -15 0zM567.62 612.1 a7.5 7.5 0 1 0 15 0 a7.5 7.5 0 1 0 -15 0zM567.62 537.1 a7.5 7.5 0 1 0 15 0 a7.5 7.5 0 1 0 -15 0zM762.48 49.6 a7.5 7.5 0 1 0 15 0 a7.5 7.5 0 1 0 -15 0zM827.44 87.1 a7.5 7.5 0 1 0 15 0 a7.5 7.5 0 1 0 -15 0zM827.44 162.1 a7.5 7.5 0 1 0 15 0 a7.5 7.5 0 1 0 -15 0zM762.48 199.6 a7.5 7.5 0 1 0 15 0 a7.5 7.5 0 1 0 -15 0zM762.48 274.6 a7.5 7.5 0 1 0 15 0 a7.5 7.5 0 1 0 -15 0zM827.44 312.1 a7.5 7.5 0 1 0 15 0 a7.5 7.5 0 1 0 -15 0zM827.44 387.1 a7.5 7.5 0 1 0 15 0 a7.5 7.5 0 1 0 -15 0zM762.48 424.6 a7.5 7.5 0 1 0 15 0 a7.5 7.5 0 1 0 -15 0zM697.53 387.1 a7.5 7.5 0 1 0 15 0 a7.5 7.5 0 1 0 -15 0zM697.53 312.1 a7.5 7.5 0 1 0 15 0 a7.5 7.5 0 1 0 -15 0zM827.43 -62.9 a7.5 7.5 0 1 0 15 0 a7.5 7.5 0 1 0 -15 0zM892.39 -25.4 a7.5 7.5 0 1 0 15 0 a7.5 7.5 0 1 0 -15 0zM892.39 49.6 a7.5 7.5 0 1 0 15 0 a7.5 7.5 0 1 0 -15 0zM827.43 87.1 a7.5 7.5 0 1 0 15 0 a7.5 7.5 0 1 0 -15 0zM762.48 -25.4 a7.5 7.5 0 1 0 15 0 a7.5 7.5 0 1 0 -15 0zM892.39 274.6 a7.5 7.5 0 1 0 15 0 a7.5 7.5 0 1 0 -15 0zM957.34 312.1 a7.5 7.5 0 1 0 15 0 a7.5 7.5 0 1 0 -15 0zM957.34 387.1 a7.5 7.5 0 1 0 15 0 a7.5 7.5 0 1 0 -15 0zM892.39 424.6 a7.5 7.5 0 1 0 15 0 a7.5 7.5 0 1 0 -15 0zM827.43 387.1 a7.5 7.5 0 1 0 15 0 a7.5 7.5 0 1 0 -15 0zM827.43 312.1 a7.5 7.5 0 1 0 15 0 a7.5 7.5 0 1 0 -15 0zM957.34 -62.9 a7.5 7.5 0 1 0 15 0 a7.5 7.5 0 1 0 -15 0zM1022.3 -25.4 a7.5 7.5 0 1 0 15 0 a7.5 7.5 0 1 0 -15 0zM1022.3 49.6 a7.5 7.5 0 1 0 15 0 a7.5 7.5 0 1 0 -15 0zM957.34 87.1 a7.5 7.5 0 1 0 15 0 a7.5 7.5 0 1 0 -15 0zM1022.3 499.6 a7.5 7.5 0 1 0 15 0 a7.5 7.5 0 1 0 -15 0zM1087.25 537.1 a7.5 7.5 0 1 0 15 0 a7.5 7.5 0 1 0 -15 0zM1087.25 612.1 a7.5 7.5 0 1 0 15 0 a7.5 7.5 0 1 0 -15 0zM1022.3 649.6 a7.5 7.5 0 1 0 15 0 a7.5 7.5 0 1 0 -15 0zM957.34 612.1 a7.5 7.5 0 1 0 15 0 a7.5 7.5 0 1 0 -15 0zM957.34 537.1 a7.5 7.5 0 1 0 15 0 a7.5 7.5 0 1 0 -15 0zM1152.2 274.6 a7.5 7.5 0 1 0 15 0 a7.5 7.5 0 1 0 -15 0zM1217.16 312.1 a7.5 7.5 0 1 0 15 0 a7.5 7.5 0 1 0 -15 0zM1217.16 387.1 a7.5 7.5 0 1 0 15 0 a7.5 7.5 0 1 0 -15 0zM1152.2 424.6 a7.5 7.5 0 1 0 15 0 a7.5 7.5 0 1 0 -15 0zM1087.25 387.1 a7.5 7.5 0 1 0 15 0 a7.5 7.5 0 1 0 -15 0zM1087.25 312.1 a7.5 7.5 0 1 0 15 0 a7.5 7.5 0 1 0 -15 0zM1282.11 49.6 a7.5 7.5 0 1 0 15 0 a7.5 7.5 0 1 0 -15 0zM1347.06 87.1 a7.5 7.5 0 1 0 15 0 a7.5 7.5 0 1 0 -15 0zM1347.06 162.1 a7.5 7.5 0 1 0 15 0 a7.5 7.5 0 1 0 -15 0zM1282.11 199.6 a7.5 7.5 0 1 0 15 0 a7.5 7.5 0 1 0 -15 0zM1217.16 162.1 a7.5 7.5 0 1 0 15 0 a7.5 7.5 0 1 0 -15 0zM1217.16 87.1 a7.5 7.5 0 1 0 15 0 a7.5 7.5 0 1 0 -15 0zM1282.11 274.6 a7.5 7.5 0 1 0 15 0 a7.5 7.5 0 1 0 -15 0zM1347.06 312.1 a7.5 7.5 0 1 0 15 0 a7.5 7.5 0 1 0 -15 0zM1347.06 387.1 a7.5 7.5 0 1 0 15 0 a7.5 7.5 0 1 0 -15 0zM1282.11 424.6 a7.5 7.5 0 1 0 15 0 a7.5 7.5 0 1 0 -15 0zM1282.11 499.6 a7.5 7.5 0 1 0 15 0 a7.5 7.5 0 1 0 -15 0zM1217.16 537.1 a7.5 7.5 0 1 0 15 0 a7.5 7.5 0 1 0 -15 0zM1152.2 499.6 a7.5 7.5 0 1 0 15 0 a7.5 7.5 0 1 0 -15 0zM1347.06 537.1 a7.5 7.5 0 1 0 15 0 a7.5 7.5 0 1 0 -15 0zM1347.06 612.1 a7.5 7.5 0 1 0 15 0 a7.5 7.5 0 1 0 -15 0zM1282.11 649.6 a7.5 7.5 0 1 0 15 0 a7.5 7.5 0 1 0 -15 0zM1217.16 612.1 a7.5 7.5 0 1 0 15 0 a7.5 7.5 0 1 0 -15 0zM1412.02 49.6 a7.5 7.5 0 1 0 15 0 a7.5 7.5 0 1 0 -15 0zM1476.97 87.1 a7.5 7.5 0 1 0 15 0 a7.5 7.5 0 1 0 -15 0zM1476.97 162.1 a7.5 7.5 0 1 0 15 0 a7.5 7.5 0 1 0 -15 0zM1412.02 199.6 a7.5 7.5 0 1 0 15 0 a7.5 7.5 0 1 0 -15 0zM1347.07 162.1 a7.5 7.5 0 1 0 15 0 a7.5 7.5 0 1 0 -15 0zM1347.07 87.1 a7.5 7.5 0 1 0 15 0 a7.5 7.5 0 1 0 -15 0zM1541.93 199.6 a7.5 7.5 0 1 0 15 0 a7.5 7.5 0 1 0 -15 0zM1541.93 274.6 a7.5 7.5 0 1 0 15 0 a7.5 7.5 0 1 0 -15 0zM1476.97 312.1 a7.5 7.5 0 1 0 15 0 a7.5 7.5 0 1 0 -15 0zM1412.02 274.6 a7.5 7.5 0 1 0 15 0 a7.5 7.5 0 1 0 -15 0zM1476.97 387.1 a7.5 7.5 0 1 0 15 0 a7.5 7.5 0 1 0 -15 0zM1541.93 424.6 a7.5 7.5 0 1 0 15 0 a7.5 7.5 0 1 0 -15 0zM1541.93 499.6 a7.5 7.5 0 1 0 15 0 a7.5 7.5 0 1 0 -15 0zM1476.97 537.1 a7.5 7.5 0 1 0 15 0 a7.5 7.5 0 1 0 -15 0zM1412.02 499.6 a7.5 7.5 0 1 0 15 0 a7.5 7.5 0 1 0 -15 0zM1412.02 424.6 a7.5 7.5 0 1 0 15 0 a7.5 7.5 0 1 0 -15 0zM1606.88 537.1 a7.5 7.5 0 1 0 15 0 a7.5 7.5 0 1 0 -15 0zM1606.88 612.1 a7.5 7.5 0 1 0 15 0 a7.5 7.5 0 1 0 -15 0zM1541.93 649.6 a7.5 7.5 0 1 0 15 0 a7.5 7.5 0 1 0 -15 0zM1476.97 612.1 a7.5 7.5 0 1 0 15 0 a7.5 7.5 0 1 0 -15 0z"
              fill="#03305d"></path>
        <path d="M46.34 328.39L89.65 353.39L89.65 403.39L46.34 428.39L3.04 403.39L3.04 353.39zM3.04 403.39L46.34 428.39L46.34 478.39L3.04 503.39L-40.26 478.39L-40.26 428.39zM132.95 178.39L176.25 203.39L176.25 253.39L132.95 278.39L89.65 253.39L89.65 203.39zM89.65 253.39L132.95 278.39L132.95 328.39L89.65 353.39L46.34 328.39L46.34 278.39zM89.65 403.39L132.95 428.39L132.95 478.39L89.65 503.39L46.34 478.39L46.34 428.39zM132.95 478.39L176.25 503.39L176.25 553.39L132.95 578.39L89.65 553.39L89.65 503.39zM219.55 28.39L262.86 53.39L262.86 103.39L219.55 128.39L176.25 103.39L176.25 53.39zM176.25 103.39L219.55 128.39L219.55 178.39L176.25 203.39L132.95 178.39L132.95 128.39zM219.55 328.39L262.86 353.39L262.86 403.39L219.55 428.39L176.25 403.39L176.25 353.39zM262.86 103.39L306.16 128.39L306.16 178.39L262.86 203.39L219.55 178.39L219.55 128.39zM306.16 178.39L349.46 203.39L349.46 253.39L306.16 278.39L262.86 253.39L262.86 203.39zM306.16 478.39L349.46 503.39L349.46 553.39L306.16 578.39L262.86 553.39L262.86 503.39zM349.46 103.39L392.76 128.39L392.76 178.39L349.46 203.39L306.16 178.39L306.16 128.39zM392.76 178.39L436.07 203.39L436.07 253.39L392.76 278.39L349.46 253.39L349.46 203.39zM392.76 478.39L436.07 503.39L436.07 553.39L392.76 578.39L349.46 553.39L349.46 503.39zM565.97 478.39L609.27 503.39L609.27 553.39L565.97 578.39L522.67 553.39L522.67 503.39zM609.27 -46.61L652.58 -21.61L652.58 28.39L609.27 53.39L565.97 28.39L565.97 -21.61zM609.27 253.39L652.58 278.39L652.58 328.39L609.27 353.39L565.97 328.39L565.97 278.39zM739.18 478.39L782.49 503.39L782.49 553.39L739.18 578.39L695.88 553.39L695.88 503.39zM825.79 28.39L869.09 53.39L869.09 103.39L825.79 128.39L782.49 103.39L782.49 53.39zM869.09 103.39L912.39 128.39L912.39 178.39L869.09 203.39L825.79 178.39L825.79 128.39zM912.39 478.39L955.7 503.39L955.7 553.39L912.39 578.39L869.09 553.39L869.09 503.39zM955.7 -46.61L999 -21.61L999 28.39L955.7 53.39L912.39 28.39L912.39 -21.61zM955.7 253.39L999 278.39L999 328.39L955.7 353.39L912.39 328.39L912.39 278.39zM999 328.39L1042.3 353.39L1042.3 403.39L999 428.39L955.7 403.39L955.7 353.39zM1085.6 178.39L1128.9 203.39L1128.9 253.39L1085.6 278.39L1042.3 253.39L1042.3 203.39zM1042.3 253.39L1085.6 278.39L1085.6 328.39L1042.3 353.39L999 328.39L999 278.39zM1172.21 478.39L1215.51 503.39L1215.51 553.39L1172.21 578.39L1128.9 553.39L1128.9 503.39zM1258.81 328.39L1302.12 353.39L1302.12 403.39L1258.81 428.39L1215.51 403.39L1215.51 353.39zM1302.12 -46.61L1345.42 -21.61L1345.42 28.39L1302.12 53.39L1258.81 28.39L1258.81 -21.61zM1345.42 178.39L1388.72 203.39L1388.72 253.39L1345.42 278.39L1302.12 253.39L1302.12 203.39zM1302.12 253.39L1345.42 278.39L1345.42 328.39L1302.12 353.39L1258.81 328.39L1258.81 278.39zM1345.42 328.39L1388.72 353.39L1388.72 403.39L1345.42 428.39L1302.12 403.39L1302.12 353.39zM1302.12 403.39L1345.42 428.39L1345.42 478.39L1302.12 503.39L1258.81 478.39L1258.81 428.39zM1388.72 -46.61L1432.02 -21.61L1432.02 28.39L1388.72 53.39L1345.42 28.39L1345.42 -21.61zM1432.02 178.39L1475.33 203.39L1475.33 253.39L1432.02 278.39L1388.72 253.39L1388.72 203.39zM1388.72 403.39L1432.02 428.39L1432.02 478.39L1388.72 503.39L1345.42 478.39L1345.42 428.39z"
              stroke="rgba(6, 80, 156, 0.93)" stroke-width="2"></path>
    </g>
    <defs>
        <mask id="SvgjsMask1000">
            <rect width="1440" height="560" fill="#ffffff"></rect>
        </mask>
    </defs>
</svg>